<svg xmlns="http://www.w3.org/2000/svg" viewBox="0 0 200 400">
  <!-- 头部 -->
  <circle cx="100" cy="70" r="50" fill="#FFD6E7" />
  <path d="M60,70 Q80,20 100,25 Q120,20 140,70 Q155,90 150,110 Q130,140 70,140 Q45,110 60,70" fill="#FF9BE5" />
  
  <!-- 脸部 -->
  <circle cx="100" cy="75" r="40" fill="#FFFFFF" />
  
  <!-- 眼睛 -->
  <ellipse cx="85" cy="65" rx="6" ry="8" fill="#553366" />
  <ellipse cx="115" cy="65" rx="6" ry="8" fill="#553366" />
  
  <!-- 高光 -->
  <circle cx="83" cy="63" r="2" fill="white" />
  <circle cx="113" cy="63" r="2" fill="white" />
  
  <!-- 嘴巴 -->
  <path d="M90,85 Q100,92 110,85" stroke="#FF5993" stroke-width="2" fill="none" />
  
  <!-- 腮红 -->
  <circle cx="75" cy="75" r="6" fill="#ffb6d3" opacity="0.5" />
  <circle cx="125" cy="75" r="6" fill="#ffb6d3" opacity="0.5" />
  
  <!-- 身体 -->
  <path d="M80,140 Q100,150 120,140 L125,250 Q100,260 75,250 Z" fill="#FF9BE5" />
  
  <!-- 裙子 -->
  <path d="M75,250 Q100,260 125,250 L140,320 Q100,340 60,320 Z" fill="#FFB6D3" />
  
  <!-- 手臂 -->
  <path d="M80,160 Q60,200 65,230" stroke="#FFD6E7" stroke-width="10" fill="none" />
  <path d="M120,160 Q140,200 135,230" stroke="#FFD6E7" stroke-width="10" fill="none" />
  
  <!-- 腿 -->
  <path d="M85,320 Q80,360 85,385" stroke="#FFD6E7" stroke-width="12" fill="none" />
  <path d="M115,320 Q120,360 115,385" stroke="#FFD6E7" stroke-width="12" fill="none" />
</svg> 